<svg width="557" height="434" viewBox="0 0 557 434" fill="none" xmlns="http://www.w3.org/2000/svg">
<path d="M363.7 385.947C470.099 385.947 556.351 299.694 556.351 193.295C556.351 86.8971 470.099 0.644165 363.7 0.644165C257.302 0.644165 171.049 86.8971 171.049 193.295C171.049 299.694 257.302 385.947 363.7 385.947Z" fill="url(#paint0_linear_301_739)"/>
<mask id="mask0_301_739" style="mask-type:luminance" maskUnits="userSpaceOnUse" x="171" y="0" width="386" height="386">
<path d="M363.7 385.947C470.099 385.947 556.351 299.694 556.351 193.295C556.351 86.8971 470.099 0.644165 363.7 0.644165C257.302 0.644165 171.049 86.8971 171.049 193.295C171.049 299.694 257.302 385.947 363.7 385.947Z" fill="white"/>
</mask>
<g mask="url(#mask0_301_739)">
<path d="M330.25 78.7251H308.231V56.7061C308.231 55.0784 307.585 53.5174 306.434 52.3664C305.283 51.2154 303.722 50.5688 302.094 50.5688H292.542C290.914 50.5688 289.353 51.2154 288.202 52.3664C287.051 53.5174 286.404 55.0784 286.404 56.7061V78.7251H264.385C262.758 78.7251 261.197 79.3717 260.046 80.5226C258.895 81.6736 258.248 83.2346 258.248 84.8623V94.4147C258.248 96.0424 258.895 97.6035 260.046 98.7544C261.197 99.9054 262.758 100.552 264.385 100.552H286.404V122.571C286.404 123.377 286.563 124.175 286.871 124.92C287.18 125.664 287.632 126.341 288.202 126.911C288.772 127.481 289.448 127.933 290.193 128.241C290.937 128.549 291.736 128.708 292.542 128.708H302.094C303.722 128.708 305.283 128.062 306.434 126.911C307.585 125.76 308.231 124.199 308.231 122.571V100.552H330.25C331.878 100.552 333.439 99.9054 334.59 98.7544C335.741 97.6035 336.387 96.0424 336.387 94.4147V84.8623C336.387 84.0564 336.229 83.2583 335.92 82.5137C335.612 81.7691 335.16 81.0925 334.59 80.5226C334.02 79.9527 333.343 79.5007 332.599 79.1922C331.854 78.8838 331.056 78.7251 330.25 78.7251Z" fill="white"/>
<path d="M273.704 208.15C273.704 208.15 268.26 199.124 269.93 195.291C271.6 191.458 274.38 189.246 275.825 179.267C277.269 169.289 281.311 163.068 282.221 161.916C283.131 160.764 281.636 156.906 278.046 159.111C274.455 161.315 271.976 165.089 270.865 171.544C269.754 177.998 265.805 173.982 263.792 169.999C261.78 166.016 259.4 150.276 258.666 144.314C257.931 138.352 256.403 133.852 253.706 134.787C251.009 135.722 252.353 147.905 253.004 151.621C253.656 155.336 254.374 162.425 253.196 162.885C252.019 163.344 249.422 150.861 247.585 145.558C245.748 140.256 244.145 133.518 240.755 134.703C237.365 135.889 241.222 145.558 242.5 149.675C243.778 153.792 246.366 164.847 245.84 165.273C245.314 165.699 240.304 152.798 239.235 149.475C238.166 146.151 236.363 139.455 232.814 141.425C229.265 143.396 236.43 158.275 237.599 160.998C238.768 163.72 241.882 171.126 240.813 171.853C239.744 172.579 232.229 157.958 230.142 156.388C228.054 154.819 225.316 154.184 226.192 159.06C227.069 163.937 233.49 171.986 235.954 177.714C238.417 183.442 241.89 192.076 245.773 196.235C249.656 200.393 253.597 210.204 255.083 214.605C258.924 212.4 273.704 208.15 273.704 208.15Z" fill="url(#paint1_linear_301_739)"/>
<path d="M446.465 444.455C466.054 368.47 448.235 312.7 448.235 312.7L357.655 321.134C357.655 321.134 342.157 461.08 338.967 476.394C338.717 477.613 338.525 483.617 338.399 486.247H384.542C387.005 461.005 393.585 400.417 393.585 400.417C393.585 400.417 394.52 451.928 398.327 486.247H443.493C442.081 476.711 441.939 461.99 446.465 444.455Z" fill="#1F1844"/>
<path d="M329.399 99.2577C334.409 105.512 333.148 104.685 335.244 108.008C337.34 111.332 339.836 112.601 342.625 112.234C345.414 111.9 345.247 117.603 349.397 119.264C353.547 120.926 345.857 123.99 350.04 127.748C354.223 131.505 360.477 126.078 357.137 134.01C353.797 141.943 362.331 140.114 367.608 145.951C372.886 151.788 379.841 150.126 378.806 158.476C377.77 166.826 391.932 168.905 399.848 168.496C401.284 168.413 402.714 168.246 404.131 167.995C411.938 166.717 421.942 163.569 426.125 163.92C431.135 164.329 440.32 159.328 442.825 152.648C445.33 145.968 451.576 145.133 455.35 142.235C459.124 139.338 457.855 133.885 456.185 124.7C454.515 115.515 461.195 117.185 466.205 114.271C471.215 111.357 464.953 106.355 460.36 97.571C455.768 88.7868 466.205 90.4818 466.205 83.376C466.205 76.2701 459.951 76.3035 454.949 74.6252C449.948 72.9468 452.035 62.9352 447.434 55.0277C442.833 47.1203 431.177 54.6186 431.569 45.4335C431.962 36.2485 429.064 37.5177 422.819 35.4135C416.573 33.3093 418.811 35.4887 412.222 28.0572C403.964 18.7386 395.781 30.6457 382.855 30.2282C369.93 29.8107 373.219 28.3327 365.713 30.8294C358.206 33.326 354.44 45.0244 351.944 49.1994C349.447 53.3744 339.026 53.3744 336.914 56.7144C334.801 60.0544 335.661 69.6319 332.321 73.7985C328.981 77.9652 324.806 78.8085 329.407 82.9835C334.008 87.1585 324.397 93.0035 329.399 99.2577Z" fill="#1F1844"/>
<path d="M432.755 121.803L432.604 121.995L432.446 122.195C432.423 122.245 432.409 122.299 432.404 122.354C432.404 122.496 432.354 122.713 432.321 122.997C432.287 123.281 432.254 123.748 432.229 124.216C432.229 124.391 432.229 124.558 432.229 124.742C432.229 125.068 432.187 125.41 432.17 125.752C432.17 126.287 432.12 126.838 432.103 127.364C432.087 127.89 432.103 128.399 432.062 128.85C432.02 129.301 432.062 129.526 432.062 129.886C432.02 133.985 431.962 139.313 431.895 144.448C431.836 151.879 432.062 158.267 432.103 160.747C432.195 166.759 422.534 188.018 409.867 188.235C397.2 188.452 384.149 171.761 384.149 171.761L385.068 167.761L387.665 155.921L389.059 149.8C388.63 149.726 388.21 149.606 387.807 149.441C387.264 149.241 386.563 148.957 385.753 148.606C380.192 146.101 370.773 139.313 367.474 128.566C364.418 118.655 366.698 110.038 366.79 104.209C366.882 98.381 364.527 94.2394 363.5 87.718C362.189 79.368 365.579 68.8971 369.712 66.4589C388.274 55.3868 421.766 65.9161 421.766 65.9161C421.766 65.9161 438.608 69.3062 434.049 92.6779C435.201 91.9181 433.673 96.9782 435.26 96.6692C438.6 96.0764 434.942 98.1221 436.871 99.6335C441.105 102.94 441.105 110.881 432.755 121.803Z" fill="url(#paint2_linear_301_739)"/>
<path d="M435.026 90.5319C439.594 67.1519 421.758 65.9244 421.758 65.9244C421.758 65.9244 388.275 55.3951 369.713 66.4672C366.799 68.1873 366.281 72.713 365.604 76.579C373.036 70.734 391.798 71.5106 403.614 71.9615C409.267 72.1786 407.296 77.1385 408.866 77.4307C421.391 75.2848 431.252 85.046 428.847 102.731L432.187 98.1972C430.927 98.1722 436.137 89.7888 435.026 90.5319Z" fill="url(#paint3_linear_301_739)"/>
<path d="M432.755 121.803L432.605 121.995C432.563 122.062 432.513 122.128 432.455 122.195C432.428 122.244 432.411 122.298 432.405 122.354C432.405 122.496 432.354 122.713 432.321 122.997C432.288 123.281 432.263 123.748 432.229 124.216C432.229 124.391 432.229 124.558 432.229 124.742C432.229 125.068 432.187 125.41 432.171 125.752C432.171 126.287 432.129 126.838 432.104 127.364C432.079 127.89 432.104 128.399 432.062 128.85C432.02 129.301 432.062 129.526 432.062 129.886C421.95 146.644 405.017 152.848 388.133 154.268L389.143 149.8C411.805 146.21 423.353 130.044 432.755 121.803Z" fill="url(#paint4_linear_301_739)"/>
<path d="M430.993 105.637C430.993 105.637 434.141 101.337 436.345 104.627C438.55 107.917 435.068 113.511 435.068 113.511L430.993 105.637Z" fill="url(#paint5_linear_301_739)"/>
<path d="M387.665 169.106L387.064 168.504C386.454 180.921 387.148 193.337 386.321 205.762C382.764 236.924 378.455 268.229 374.005 300.284C372.593 313.644 379.34 325.109 379.34 325.109L394.12 325.685C394.12 325.685 405.392 306.856 408.874 288.711C415.554 246.777 420.038 207.941 428.422 168.605C428.154 168.563 406.302 187.81 387.665 169.106Z" fill="url(#paint6_linear_301_739)"/>
<path d="M338.633 202.222C339.694 202.313 339.585 202.18 338.583 201.863C338.55 202.088 338.566 202.213 338.633 202.222Z" fill="url(#paint7_linear_301_739)"/>
<path d="M482.512 184.319C477.027 176.478 442.265 156.605 431.786 150.777C431.786 153.165 440.604 163.477 420.773 172.913C417.842 186.682 396.666 293.671 396.666 293.671C396.666 293.671 393.66 293.537 391.222 293.571C389.143 298.864 387.047 315.439 387.047 315.439L394.345 316.6C394.345 316.6 393.184 460.838 391.005 474.615C402.394 474.908 419.261 476.912 434.249 476.962C456.661 477.045 471.557 465.923 470.906 448.572C469.186 402.755 460.828 325.559 462.556 315.281C462.781 313.911 474.246 310.404 475.081 306.371C481.068 278.332 494.545 201.47 482.512 184.319Z" fill="url(#paint8_linear_301_739)"/>
<path d="M383.665 300.125C388.115 268.078 386.47 180.921 387.08 168.504C383.74 165.164 381.11 162.4 381.076 162C381.043 161.599 349.146 176.737 347.242 180.595C334.859 205.445 309.024 257.816 309.024 257.816L277.135 203.9C276.204 202.329 274.784 201.107 273.091 200.421C271.399 199.735 269.529 199.622 267.767 200.101L253.163 204.1C252.175 204.371 251.261 204.859 250.486 205.529C249.712 206.199 249.097 207.034 248.687 207.972C248.277 208.91 248.083 209.929 248.117 210.952C248.152 211.975 248.415 212.978 248.887 213.886L290.871 294.598C293.82 299.748 298.431 303.745 303.949 305.932C309.466 308.12 315.563 308.369 321.24 306.638L350.465 286.097L322.284 448.747C320.28 458.308 328.688 466.165 336.771 468.395C341.942 469.883 347.195 471.07 352.503 471.952C352.327 458.558 382.254 313.519 383.665 300.125Z" fill="url(#paint9_linear_301_739)"/>
<path d="M447.467 234.687L442.9 283.058L396.666 294.673L432.938 283.542L447.467 234.687Z" fill="url(#paint10_linear_301_739)"/>
<path d="M447.468 343.504H455.651C455.651 343.504 460.494 389.145 438.617 389.429C416.74 389.713 418.652 359.235 418.652 359.235" stroke="white" stroke-width="1.21" stroke-miterlimit="10"/>
<path d="M366.606 249.316L436.137 244.59L441.84 350.008L371.641 352.196L366.606 249.316Z" fill="url(#paint11_linear_301_739)"/>
<path d="M439.752 283.651L405.918 288.293L408.097 315.389L442.9 315.698L439.752 283.651Z" fill="url(#paint12_linear_301_739)"/>
<path d="M406.251 291.308C406.225 290.988 406.122 290.68 405.952 290.409C405.782 290.137 405.55 289.91 405.275 289.746C401.411 287.45 397.827 284.712 394.595 281.588C390.094 277.088 381.669 272.837 377.895 274.215C377.474 274.404 377.13 274.73 376.918 275.139C376.706 275.548 376.638 276.017 376.726 276.47C377.753 281.354 384.85 282.189 383.339 283.834C378.956 283.085 374.623 282.07 370.363 280.795C367.082 279.785 364.518 282.999 365.27 285.221C365.38 285.64 365.349 286.084 365.182 286.484C365.014 286.884 364.719 287.218 364.343 287.433C362.205 288.836 362.898 291.8 363.992 292.819C365.378 294.105 359.667 296.034 362.84 299.24C366.013 302.447 360.844 305.085 364.376 307.983C367.908 310.88 373.135 314.262 380.842 313.293C388.549 312.325 408.088 313.377 408.088 313.377L406.251 291.308Z" fill="url(#paint13_linear_301_739)"/>
<path d="M437.072 191.859C437.072 191.859 443.752 172.354 442.917 157.299" stroke="url(#paint14_linear_301_739)" stroke-width="3.1" stroke-miterlimit="10" stroke-linecap="round"/>
<path d="M426.308 181.263L448.661 175.502L431.61 150.226C431.61 150.226 431.135 169.506 420.755 172.913C419.227 182.674 408.23 226.353 402.937 246.936L406.126 246.627L432.546 197.295L426.308 181.263Z" fill="url(#paint15_linear_301_739)"/>
<path d="M450.432 249.065C450.432 249.065 432.062 255.803 427.586 221.986C423.11 188.168 436.103 190.197 442.082 193.596C448.653 197.337 458.782 229.751 430.893 251.67" stroke="url(#paint16_linear_301_739)" stroke-width="3.1" stroke-miterlimit="10"/>
<path d="M453.409 249.236C453.531 247.571 452.28 246.123 450.616 246.001C448.951 245.879 447.502 247.13 447.38 248.794C447.258 250.459 448.509 251.908 450.174 252.03C451.839 252.152 453.287 250.901 453.409 249.236Z" fill="#1F1844"/>
<path d="M431.814 253.066C431.936 251.401 430.685 249.952 429.02 249.83C427.355 249.708 425.906 250.959 425.784 252.624C425.662 254.289 426.913 255.738 428.578 255.86C430.243 255.981 431.692 254.731 431.814 253.066Z" fill="#1F1844"/>
<path d="M368.46 172.187C368.46 172.187 357.947 212.066 365.579 227.614" stroke="url(#paint17_linear_301_739)" stroke-width="3.1" stroke-miterlimit="10" stroke-linecap="round"/>
<path d="M365.596 237.367C370.982 237.367 375.348 233 375.348 227.614C375.348 222.228 370.982 217.861 365.596 217.861C360.209 217.861 355.843 222.228 355.843 227.614C355.843 233 360.209 237.367 365.596 237.367Z" fill="url(#paint18_linear_301_739)"/>
<path d="M386.713 236.031L371.198 202.255L377.644 189.53L362.005 174.75C369.107 168.009 376.614 161.707 384.483 155.879C385.696 155.405 386.884 154.867 388.04 154.268V174.717C385.686 201.804 386.713 236.031 386.713 236.031Z" fill="url(#paint19_linear_301_739)"/>
</g>
<path d="M382.73 104.159C390.453 104.368 404.022 115.432 411.537 113.344C419.052 111.257 429.481 101.654 429.481 101.654C429.481 101.654 421.541 113.344 429.481 124.842C437.422 136.34 399.421 151.629 388.049 150.193C376.676 148.757 367.224 133.125 365.454 122.746C363.683 112.367 366.096 108.05 366.096 108.05C366.096 108.05 375.006 103.951 382.73 104.159Z" fill="url(#paint20_linear_301_739)"/>
<path d="M0.224609 395.541C0.224609 395.541 25.8007 380.386 28.1637 365.706C30.5268 351.027 34.301 329.225 41.4068 322.128C48.5127 315.03 59.877 306.739 64.8537 293.946C69.8303 281.154 74.7234 272.103 79.9254 283.233C76.5854 295.074 54.6666 364.755 54.6666 364.755L98.4791 379.668C98.4791 379.668 78.1135 395.299 62.9582 399.8C47.8029 404.3 27.8882 433.659 27.8882 433.659C27.8882 433.659 2.33716 401.461 0.224609 395.541Z" fill="url(#paint21_linear_301_739)"/>
<path d="M139.26 308.191C139.97 307.958 164.127 293.746 166.966 299.19C169.805 304.634 133.106 326.662 133.106 326.662L139.26 308.191Z" fill="url(#paint22_linear_301_739)"/>
<path d="M152.32 262.733L96.9751 244.673C95.4242 244.167 93.7567 245.014 93.2507 246.564L55.6967 361.649C55.1906 363.2 56.0376 364.868 57.5885 365.374L112.934 383.434C114.484 383.94 116.152 383.093 116.658 381.542L154.212 266.457C154.718 264.906 153.871 263.239 152.32 262.733Z" fill="#1F1844"/>
<path d="M139.013 270.435L101.065 257.878C97.5321 256.709 93.7202 258.625 92.551 262.158L64.6373 346.512C63.4682 350.045 65.3845 353.857 68.9177 355.026L106.865 367.584C110.399 368.753 114.21 366.837 115.38 363.303L143.293 278.95C144.463 275.416 142.546 271.604 139.013 270.435Z" fill="white"/>
<path d="M131.904 330.428C131.904 330.428 142.701 328.048 141.282 336.573C139.862 345.098 136.656 346.518 136.656 346.518C136.656 346.518 141.265 350.601 136.656 355.219C133.899 357.984 130.566 360.105 126.894 361.431C126.894 361.431 135.002 361.256 133.524 365.873C132.046 370.491 116.883 375.801 116.883 375.801L131.904 330.428Z" fill="url(#paint23_linear_301_739)"/>
<path d="M87.1143 373.756C89.8628 373.756 92.0909 371.528 92.0909 368.779C92.0909 366.031 89.8628 363.802 87.1143 363.802C84.3658 363.802 82.1377 366.031 82.1377 368.779C82.1377 371.528 84.3658 373.756 87.1143 373.756Z" fill="white"/>
<path d="M109.033 294.28V298.856C109.033 299.673 108.709 300.457 108.131 301.035C107.553 301.613 106.769 301.937 105.952 301.937H104.215C103.272 301.937 102.367 302.312 101.7 302.979C101.033 303.646 100.658 304.551 100.658 305.494V321.927C100.658 322.871 101.033 323.775 101.7 324.443C102.367 325.11 103.272 325.484 104.215 325.484H105.952C106.769 325.484 107.553 325.809 108.131 326.387C108.709 326.965 109.033 327.748 109.033 328.566V333.3C109.033 334.117 108.709 334.901 108.131 335.479C107.553 336.057 106.769 336.381 105.952 336.381H104.057C101.437 336.381 98.9244 335.34 97.0719 333.488C95.2194 331.635 94.1787 329.123 94.1787 326.503V301.069C94.1787 298.449 95.2194 295.937 97.0719 294.084C98.9244 292.232 101.437 291.191 104.057 291.191H105.952C106.358 291.191 106.759 291.271 107.133 291.426C107.508 291.582 107.848 291.809 108.134 292.096C108.42 292.383 108.647 292.724 108.801 293.099C108.956 293.474 109.034 293.875 109.033 294.28Z" fill="#1F1844"/>
<defs>
<linearGradient id="paint0_linear_301_739" x1="171.049" y1="193.295" x2="556.351" y2="193.295" gradientUnits="userSpaceOnUse">
<stop stop-color="white"/>
<stop offset="0.16" stop-color="#F2F3F8"/>
<stop offset="0.71" stop-color="#CACDE2"/>
<stop offset="0.99" stop-color="#BBBFD9"/>
</linearGradient>
<linearGradient id="paint1_linear_301_739" x1="234.343" y1="180.338" x2="282.879" y2="161.434" gradientUnits="userSpaceOnUse">
<stop stop-color="#A04400"/>
<stop offset="0.3" stop-color="#9C4200"/>
<stop offset="0.62" stop-color="#8E3D00"/>
<stop offset="0.95" stop-color="#793300"/>
<stop offset="1" stop-color="#753200"/>
</linearGradient>
<linearGradient id="paint2_linear_301_739" x1="363.199" y1="124.817" x2="439.627" y2="124.817" gradientUnits="userSpaceOnUse">
<stop stop-color="#753200"/>
<stop offset="1" stop-color="#A04400"/>
</linearGradient>
<linearGradient id="paint3_linear_301_739" x1="389.07" y1="89.1933" x2="431.898" y2="69.5093" gradientUnits="userSpaceOnUse">
<stop stop-color="#A04400" stop-opacity="0"/>
<stop offset="0.18" stop-color="#9A4100" stop-opacity="0.14"/>
<stop offset="0.52" stop-color="#8A3B00" stop-opacity="0.52"/>
<stop offset="0.9" stop-color="#753200"/>
</linearGradient>
<linearGradient id="paint4_linear_301_739" x1="428.129" y1="123.615" x2="392.508" y2="158.576" gradientUnits="userSpaceOnUse">
<stop stop-color="#A04400"/>
<stop offset="1" stop-color="#753200"/>
</linearGradient>
<linearGradient id="paint5_linear_301_739" x1="437.056" y1="106.409" x2="432.416" y2="109.815" gradientUnits="userSpaceOnUse">
<stop stop-color="#753200"/>
<stop offset="1" stop-color="#A04400"/>
</linearGradient>
<linearGradient id="paint6_linear_301_739" x1="373.821" y1="247.086" x2="428.438" y2="247.086" gradientUnits="userSpaceOnUse">
<stop offset="0.09" stop-color="#D9D9D9"/>
<stop offset="1" stop-color="#E6E6E6"/>
</linearGradient>
<linearGradient id="paint7_linear_301_739" x1="338.566" y1="202.055" x2="339.385" y2="202.055" gradientUnits="userSpaceOnUse">
<stop stop-color="#80CBE8"/>
<stop offset="0.44" stop-color="#1F8080"/>
<stop offset="0.89" stop-color="#136464"/>
</linearGradient>
<linearGradient id="paint8_linear_301_739" x1="387.08" y1="313.869" x2="487.33" y2="313.869" gradientUnits="userSpaceOnUse">
<stop stop-color="#2C9696"/>
<stop offset="0.44" stop-color="#227777"/>
<stop offset="0.89" stop-color="#136464"/>
</linearGradient>
<linearGradient id="paint9_linear_301_739" x1="248.16" y1="316.971" x2="387.054" y2="316.971" gradientUnits="userSpaceOnUse">
<stop stop-color="#2C9696"/>
<stop offset="0.44" stop-color="#227777"/>
<stop offset="0.89" stop-color="#136464"/>
</linearGradient>
<linearGradient id="paint10_linear_301_739" x1="396.666" y1="264.68" x2="447.467" y2="264.68" gradientUnits="userSpaceOnUse">
<stop stop-color="#136464"/>
<stop offset="0.44" stop-color="#136464"/>
<stop offset="0.89" stop-color="#136464"/>
</linearGradient>
<linearGradient id="paint11_linear_301_739" x1="366.606" y1="298.397" x2="441.84" y2="298.397" gradientUnits="userSpaceOnUse">
<stop offset="0.09" stop-color="#D9D9D9"/>
<stop offset="1" stop-color="#E6E6E6"/>
</linearGradient>
<linearGradient id="paint12_linear_301_739" x1="405.918" y1="299.675" x2="442.9" y2="299.675" gradientUnits="userSpaceOnUse">
<stop offset="0.11" stop-color="#308F8F"/>
<stop offset="1" stop-color="#136464"/>
</linearGradient>
<linearGradient id="paint13_linear_301_739" x1="368.651" y1="279.785" x2="401.734" y2="318.771" gradientUnits="userSpaceOnUse">
<stop stop-color="#A04400"/>
<stop offset="0.3" stop-color="#9C4200"/>
<stop offset="0.62" stop-color="#8E3D00"/>
<stop offset="0.95" stop-color="#793300"/>
<stop offset="1" stop-color="#753200"/>
</linearGradient>
<linearGradient id="paint14_linear_301_739" x1="435.778" y1="174.575" x2="444.27" y2="174.575" gradientUnits="userSpaceOnUse">
<stop stop-color="#F0F2F5"/>
<stop offset="0.99" stop-color="#F5F7F8"/>
</linearGradient>
<linearGradient id="paint15_linear_301_739" x1="402.952" y1="198.581" x2="448.652" y2="198.581" gradientUnits="userSpaceOnUse">
<stop stop-color="#2C9696"/>
<stop offset="0.44" stop-color="#227777"/>
<stop offset="0.89" stop-color="#136464"/>
</linearGradient>
<linearGradient id="paint16_linear_301_739" x1="424.414" y1="220.833" x2="452.894" y2="222.92" gradientUnits="userSpaceOnUse">
<stop stop-color="#F0F2F5"/>
<stop offset="0.99" stop-color="#F5F7F8"/>
</linearGradient>
<linearGradient id="paint17_linear_301_739" x1="361.521" y1="199.9" x2="369.771" y2="199.9" gradientUnits="userSpaceOnUse">
<stop stop-color="#F0F2F5"/>
<stop offset="0.99" stop-color="#F5F7F8"/>
</linearGradient>
<linearGradient id="paint18_linear_301_739" x1="355.843" y1="227.614" x2="375.348" y2="227.614" gradientUnits="userSpaceOnUse">
<stop stop-color="#F0F2F5"/>
<stop offset="0.99" stop-color="#F5F7F8"/>
</linearGradient>
<linearGradient id="paint19_linear_301_739" x1="362.014" y1="195.149" x2="388.035" y2="195.149" gradientUnits="userSpaceOnUse">
<stop stop-color="#2C9696"/>
<stop offset="0.44" stop-color="#227777"/>
<stop offset="0.89" stop-color="#136464"/>
</linearGradient>
<linearGradient id="paint20_linear_301_739" x1="364.802" y1="125.97" x2="430.559" y2="125.97" gradientUnits="userSpaceOnUse">
<stop offset="0.09" stop-color="#D9D9D9"/>
<stop offset="1" stop-color="#E6E6E6"/>
</linearGradient>
<linearGradient id="paint21_linear_301_739" x1="0.207909" y1="355.937" x2="98.4791" y2="355.937" gradientUnits="userSpaceOnUse">
<stop stop-color="#A96E46"/>
<stop offset="1" stop-color="#FFD0B9"/>
</linearGradient>
<linearGradient id="paint22_linear_301_739" x1="133.106" y1="312.3" x2="167.124" y2="312.3" gradientUnits="userSpaceOnUse">
<stop stop-color="#A96E46"/>
<stop offset="1" stop-color="#FFD0B9"/>
</linearGradient>
<linearGradient id="paint23_linear_301_739" x1="116.891" y1="352.964" x2="141.407" y2="352.964" gradientUnits="userSpaceOnUse">
<stop stop-color="#A96E46"/>
<stop offset="1" stop-color="#FFD0B9"/>
</linearGradient>
</defs>
</svg>
